<svg width="30" height="30" viewBox="0 0 800 800" fill="#232f3e" xmlns="http://www.w3.org/2000/svg">
<g clip-path="url(#clip0_2803_2453)">
<path fill-rule="evenodd" clip-rule="evenodd" d="M593.926 267.126L650.41 326.328C662.49 339.106 653.439 359.655 635.879 359.655L40 359.655C17.9196 359.655 -9.70743e-06 377.92 -8.74094e-06 400.031L-8.75497e-06 399.71C-7.78849e-06 421.82 17.9196 439.766 40 439.766L635.293 439.766C652.933 439.766 661.927 461.475 649.687 474.172L593.516 532.654C578.315 548.596 578.997 574.071 595.117 589.132L595.195 589.292C611.115 604.193 636.093 603.472 651.094 587.57L778.164 453.865C807.404 422.902 807.251 374.435 777.891 343.593L651.934 212.29C636.973 196.588 612.208 195.827 596.328 210.608L595.879 211.008C579.838 225.949 578.965 251.104 593.926 267.126Z" fill="black"/>
</g>
<defs>
<clipPath id="clip0_2803_2453">
<rect width="800" height="800" fill="white" transform="translate(0 800) rotate(-90)"/>
</clipPath>
</defs>
</svg>
