<svg width="30" height="30" viewBox="0 0 800 800" fill="#232f3e" xmlns="http://www.w3.org/2000/svg">
<g clip-path="url(#clip0_2803_2448)">
<path fill-rule="evenodd" clip-rule="evenodd" d="M206.074 532.873L149.59 473.672C137.51 460.894 146.561 440.345 164.121 440.345L760 440.345C782.08 440.345 800 422.08 800 399.969L800 400.29C800 378.18 782.08 360.234 760 360.234L164.707 360.234C147.067 360.234 138.072 338.525 150.312 325.828L206.484 267.346C221.685 251.404 221.003 225.929 204.883 210.868L204.805 210.708C188.885 195.807 163.907 196.528 148.906 212.43L21.8359 346.135C-7.40447 377.098 -7.25103 425.565 22.1094 456.407L148.066 587.71C163.027 603.412 187.792 604.172 203.672 589.392L204.121 588.992C220.161 574.051 221.035 548.896 206.074 532.873Z" fill="black"/>
</g>
<defs>
<clipPath id="clip0_2803_2448">
<rect width="800" height="800" fill="white" transform="translate(800) rotate(90)"/>
</clipPath>
</defs>
</svg>
